<svg width="490" height="536" viewBox="0 0 490 536" fill="none" xmlns="http://www.w3.org/2000/svg">
<g clip-path="url(#clip0_4_138)">
<rect width="490" height="536" fill="#FDF1DB"/>
<path d="M437.732 369.111C460.373 364.482 464.221 394.903 444.469 398.099C424.053 401.409 421.97 372.333 437.732 369.111Z" fill="#95B496"/>
<path d="M48.7454 398.267C56.8385 398.267 63.3992 391.716 63.3992 383.636C63.3992 375.555 56.8385 369.005 48.7454 369.005C40.6523 369.005 34.0916 375.555 34.0916 383.636C34.0916 391.716 40.6523 398.267 48.7454 398.267Z" fill="#97B597"/>
<path d="M355.474 46.531C373.665 43.6544 378.833 71.4914 359.658 73.8723C340.058 76.2976 339.384 49.0801 355.474 46.531Z" fill="#95B496"/>
<path d="M131.934 74.1467C139.592 74.1467 145.799 67.9489 145.799 60.3034C145.799 52.658 139.592 46.4602 131.934 46.4602C124.277 46.4602 118.07 52.658 118.07 60.3034C118.07 67.9489 124.277 74.1467 131.934 74.1467Z" fill="#95B496"/>
<path d="M29.1271 174.114C35.3255 174.114 40.3502 169.098 40.3502 162.909C40.3502 156.72 35.3255 151.703 29.1271 151.703C22.9288 151.703 17.9041 156.72 17.9041 162.909C17.9041 169.098 22.9288 174.114 29.1271 174.114Z" fill="#0D432F"/>
<path d="M457.536 173.946C463.735 173.946 468.76 168.929 468.76 162.741C468.76 156.552 463.735 151.535 457.536 151.535C451.338 151.535 446.313 156.552 446.313 162.741C446.313 168.929 451.338 173.946 457.536 173.946Z" fill="#15432F"/>
<path d="M7.49662 325.642C23.7905 322.765 23.294 349.381 5.01442 343.751C-1.93573 341.609 -2.15735 327.35 7.49662 325.642Z" fill="#0D432F"/>
<path d="M480.302 344.336C485.658 344.336 490 340 490 334.652C490 329.304 485.658 324.969 480.302 324.969C474.946 324.969 470.604 329.304 470.604 334.652C470.604 340 474.946 344.336 480.302 344.336Z" fill="#0D432F"/>
<path d="M332.735 53.3284C337.856 53.3284 342.008 49.1833 342.008 44.0701C342.008 38.9569 337.856 34.8118 332.735 34.8118C327.614 34.8118 323.462 38.9569 323.462 44.0701C323.462 49.1833 327.614 53.3284 332.735 53.3284Z" fill="#0D432F"/>
<path d="M162.652 36.8741C171.517 44.2294 159.194 59.6128 149.948 50.8944C141.677 43.0965 153.219 29.0496 162.652 36.8741Z" fill="#15432F"/>
<path d="M72.3085 411.792C75.5545 411.792 78.186 409.165 78.186 405.924C78.186 402.683 75.5545 400.056 72.3085 400.056C69.0624 400.056 66.431 402.683 66.431 405.924C66.431 409.165 69.0624 411.792 72.3085 411.792Z" fill="#15432F"/>
<path d="M345.935 161.298C343.692 161.82 342.416 156.563 341.955 155.023C329.863 115.129 370.296 92.6822 403.593 87.4156C407.6 86.7783 424.541 84.5831 426.908 86.6101C430.844 89.9913 425.498 120.343 424.027 126.503C419.993 143.436 412.937 157.943 399.497 169.291C397.955 170.477 396.111 171.734 393.957 172.938C391.448 174.345 389.09 175.372 387.033 176.124C385.278 176.549 383.514 176.974 381.759 177.399L378.195 177.656C376.058 177.753 373.612 177.691 370.934 177.319C364.286 176.399 359.126 173.964 355.758 171.982C369.498 158.537 382.991 144.79 396.847 131.46C400.898 124.432 392.423 117.944 386.129 122.547C373.417 134.815 361.245 147.676 348.63 160.015C347.664 160.962 346.104 161.13 345.935 161.289V161.298Z" fill="#688B6B"/>
<path d="M345.935 161.298C346.104 161.139 347.664 160.962 348.63 160.024C361.245 147.685 373.408 134.815 386.129 122.556C392.423 117.962 400.898 124.441 396.847 131.469C383 144.799 369.498 158.545 355.758 171.991C343.222 184.259 330.856 196.757 317.913 208.609C312.213 211.432 307.762 207.467 308.463 201.421C308.667 201.138 308.445 199.439 309.739 197.819C318.542 186.808 335.652 171.442 345.935 161.298Z" fill="#0D432F"/>
<path d="M143.326 162.281C142.643 161.599 140.622 160.953 139.284 159.634C128.628 149.074 115.969 132.841 104.453 124.007C95.3842 117.05 87.8135 124.467 94.2228 133.337C101.696 143.675 122.679 162.236 132.617 172.088C133.06 174.558 128.592 175.354 126.943 175.788C84.9501 186.976 66.0233 144.215 62.0784 110.172C61.6174 106.18 60.1724 90.0444 61.9632 87.8139C64.4542 84.7159 81.9449 87.0172 86.3508 87.6899C123.353 93.3371 162.253 120.971 143.308 162.281H143.326Z" fill="#698C6C"/>
<path d="M132.617 172.088C122.68 162.236 101.687 143.675 94.2229 133.337C87.8135 124.459 95.3842 117.05 104.453 124.007C115.969 132.841 128.628 149.083 139.284 159.634C140.622 160.962 142.643 161.599 143.326 162.281C155.418 174.389 167.173 186.896 179.451 198.846C184.087 208.317 175.816 212.857 167.918 206.803C155.737 197.474 143.397 182.78 132.617 172.088Z" fill="#0D432F"/>
<path d="M216.693 378.245C220.639 378.245 223.838 375.051 223.838 371.111C223.838 367.171 220.639 363.977 216.693 363.977C212.746 363.977 209.547 367.171 209.547 371.111C209.547 375.051 212.746 378.245 216.693 378.245Z" fill="#15432F"/>
<path d="M274.368 375.413C286.185 371.873 287.107 392.177 274.368 388.407C268.721 386.734 268.712 377.113 274.368 375.413Z" fill="#15432F"/>
<path d="M118.522 399.515C122.208 399.515 125.197 396.531 125.197 392.85C125.197 389.169 122.208 386.185 118.522 386.185C114.835 386.185 111.846 389.169 111.846 392.85C111.846 396.531 114.835 399.515 118.522 399.515Z" fill="#15432F"/>
<path d="M208.386 409.801C203.847 414.341 193.36 408.384 199.042 401.365C204.219 394.975 213.935 404.251 208.386 409.801Z" fill="#15432F"/>
<path d="M254.324 419.201C257.482 419.201 260.042 416.645 260.042 413.492C260.042 410.339 257.482 407.783 254.324 407.783C251.166 407.783 248.606 410.339 248.606 413.492C248.606 416.645 251.166 419.201 254.324 419.201Z" fill="#15432F"/>
<path d="M238.846 201.448C192.358 193.907 173.662 148.048 180.116 105.003C184.929 72.8993 210.487 26.1374 235.664 5.40745C245.504 -2.69158 245.965 -1.11604 255.007 6.31028C283.588 29.7842 309.624 81.1311 311.149 118.041C312.745 156.669 292.222 193.862 252.241 201.43C252.303 183.117 251.683 164.6 252.808 146.384L293.685 114.058C296.096 108.924 291.504 103.021 286.096 104.649L252.214 130.132L252.17 30.7578C252.17 28.6689 247.809 25.8099 245.477 25.8099C243.146 25.8099 238.784 28.6689 238.784 30.7667L238.802 62.4015C233.536 60.3746 226.435 51.178 221.178 50.0892C214.237 48.6376 211.276 56.064 215.576 61.0915C220.575 66.9423 233.137 72.7577 238.811 78.8917L238.837 130.132L204.964 105.596C198.484 103.162 193.112 108.978 196.507 114.926C209.725 126.751 225.052 136.258 238.846 147.517V170.247C231.807 168.919 220.753 152.102 213.359 159.51C211.533 161.342 211.56 165.237 212.544 167.565C214.281 171.681 234.325 182.745 238.412 187.188C239.325 191.853 238.802 196.721 238.873 201.439L238.846 201.448ZM276.141 63.2778C276.141 59.8701 273.366 57.0996 269.953 57.1084C266.54 57.1173 263.766 59.8789 263.774 63.2867C263.774 66.6945 266.549 69.4649 269.962 69.4561C273.375 69.4472 276.15 66.6856 276.141 63.2778ZM277.072 165.989C277.072 162.573 274.297 159.811 270.884 159.811C267.462 159.811 264.696 162.582 264.696 165.989C264.696 169.406 267.471 172.168 270.884 172.168C274.306 172.168 277.072 169.397 277.072 165.989Z" fill="#97B597"/>
<path d="M238.846 201.448C238.775 196.73 239.298 191.862 238.385 187.197C234.307 182.763 214.263 171.69 212.517 167.574C211.533 165.246 211.515 161.351 213.333 159.519C220.717 152.11 231.781 168.919 238.828 170.256V147.525C225.034 136.275 209.707 126.76 196.48 114.935C193.085 108.995 198.448 103.171 204.938 105.605L238.811 130.141L238.784 78.9005C233.11 72.7665 220.549 66.9511 215.549 61.1004C211.249 56.0728 214.21 48.6465 221.152 50.0981C226.4 51.1957 233.509 60.3834 238.775 62.4104L238.757 30.7755C238.757 28.6866 243.119 25.8276 245.451 25.8187C247.782 25.8099 252.144 28.6689 252.144 30.7667L252.188 130.141L286.07 104.658C291.478 103.029 296.07 108.933 293.658 114.067L252.782 146.392C251.656 164.609 252.277 183.126 252.214 201.439C252.161 217.92 254.298 242.589 252.161 257.946C251.009 266.249 241.949 267.382 238.873 259.796C238.607 240.35 239.121 220.877 238.828 201.439L238.846 201.448Z" fill="#0B422D"/>
<path d="M270.884 172.176C274.302 172.176 277.072 169.41 277.072 165.998C277.072 162.586 274.302 159.82 270.884 159.82C267.467 159.82 264.696 162.586 264.696 165.998C264.696 169.41 267.467 172.176 270.884 172.176Z" fill="#15432F"/>
<path d="M269.953 69.4558C273.371 69.4558 276.141 66.6898 276.141 63.2777C276.141 59.8656 273.371 57.0995 269.953 57.0995C266.536 57.0995 263.766 59.8656 263.766 63.2777C263.766 66.6898 266.536 69.4558 269.953 69.4558Z" fill="#15432F"/>
<path d="M221.054 326.226C237.968 325.031 254.697 327.766 270.609 333.316C276.079 335.228 282.816 339.211 288.002 340.45C288.286 340.521 288.605 340.397 288.898 340.45L325.563 359.534C328.79 369.545 322.283 371.138 313.906 368.961C312.408 368.571 310.865 367.801 309.438 367.181C275.184 352.214 249.537 330.926 208.572 342.725C197.597 345.885 191.463 352.046 182.412 355.816C173.848 359.383 169.345 351.506 174.149 345.797C181.454 337.113 207.18 327.421 218.377 326.235C219.255 326.146 220.176 326.297 221.054 326.235V326.226Z" fill="#0D432F"/>
<path d="M292.444 295.007C294.979 279.818 303.498 264.682 312.975 252.689C342.912 214.822 402.893 196.35 449.93 201.36C453.131 201.696 466.118 202.9 467.323 205.591C471.41 214.725 471.534 228.374 470.027 236.995C469.407 240.553 468.662 243.43 468.13 245.298C467.075 240.916 463.378 238.296 460.125 238.774C457.208 239.199 455.613 241.996 455.373 242.421C453.423 252.14 453.06 261.921 450.693 271.604C445.453 293.033 432.945 315.33 417.405 330.599C412.467 335.449 406.616 338.547 401.12 342.221C399.134 343.548 395.845 345.912 394.205 347.54C393.992 347.744 392.831 347.779 392.423 348.434C381.227 352.603 370.571 358.392 358.515 360.038C356.493 347.16 346.972 337.644 340.776 326.757L399.09 272.693C402.822 277.172 411.749 293.449 415.995 295.892C421.828 299.247 427.892 294.751 425.64 288.077C423.69 282.279 412.653 272.746 409.462 266.762C408.903 265.718 408.212 264.789 408.566 263.505L438.291 235.198C442.962 228.294 434.745 221.682 428.504 226.329L398.168 255.751C396.173 256.061 397.139 255.388 396.838 254.441C395.251 249.573 391.182 234.402 385.633 233.472C382.849 233.012 378.585 234.384 378.08 237.544C377.016 244.245 389.498 262.425 387.76 265.408L357.132 294.096C355.235 294.405 356.086 293.786 355.722 292.874C353.701 287.82 349.455 267.055 340.164 275.375C333.764 281.111 345.846 295.441 346.024 302.522C341.707 308.134 335.173 312.639 330.359 318.162C328.737 318.72 328.826 316.392 327.31 315.02C318.055 306.673 304.101 299.274 292.435 295.025L292.444 295.007ZM387.627 291.617C385.437 291.847 382.654 294.99 382.663 297.194C382.663 301.035 393.522 310.851 398.088 308.24C407.671 302.752 393.274 291.042 387.627 291.626V291.617ZM377.14 337.131C377.14 333.635 374.303 330.802 370.801 330.811C367.3 330.811 364.463 333.644 364.472 337.14C364.481 340.636 367.309 343.469 370.81 343.46C374.312 343.46 377.149 340.627 377.14 337.131Z" fill="#95B496"/>
<path d="M468.263 243.235C464.868 283.925 453.139 322.296 419.222 348.425C416.093 350.833 411.713 352.665 408.513 354.666C406.9 353.745 402.547 355.754 401.191 356.489C400.083 357.091 399.932 358.693 398.505 359.366C392.769 362.074 385.739 361.623 381.067 367.987C376.714 367.111 366.848 372.324 363.488 371.501C362.371 371.227 362.557 369.049 361.502 368.881C359.791 368.598 358.719 372.484 356.618 372.413C355.181 372.368 355.022 370.518 352.628 368.73C349.623 366.482 347.061 367.279 346.866 366.217C346.556 364.553 352.841 362.579 358.098 360.932C358.142 360.915 358.213 360.897 358.293 360.915C358.816 361.021 358.612 362.375 359.109 362.747C359.871 363.313 361.609 360.986 364.605 360.021C367.22 359.18 367.53 360.428 370.145 359.507C372.521 358.666 373.275 357.277 375.243 357.365C376.324 357.418 377.184 357.888 377.743 358.268C378.541 359.631 379.551 361.03 380.331 360.888C382.255 360.543 381.36 356.622 382.14 355.524C382.627 354.834 390.384 352.364 391.581 351.568C392.964 350.638 392.21 348.833 392.459 348.443C392.866 347.797 394.037 347.762 394.241 347.549C395.189 349.151 398.132 347.31 399.311 346.806C406.926 343.531 411.403 338.981 417.245 333.52C418.805 332.059 417.875 332.635 417.449 330.599C432.989 315.339 445.498 293.033 450.737 271.604C453.104 261.912 453.467 252.14 455.418 242.421C459.168 236.517 464.611 238.27 468.29 243.235H468.263Z" fill="#0C422E"/>
<path d="M387.627 291.617C393.274 291.033 407.671 302.752 398.088 308.231C393.522 310.842 382.663 301.026 382.663 297.185C382.663 294.989 385.446 291.838 387.627 291.608V291.617Z" fill="#0D432F"/>
<path d="M370.801 343.459C374.302 343.459 377.14 340.626 377.14 337.131C377.14 333.636 374.302 330.802 370.801 330.802C367.301 330.802 364.463 333.636 364.463 337.131C364.463 340.626 367.301 343.459 370.801 343.459Z" fill="#0D432F"/>
<path d="M417.422 330.599C417.857 332.626 418.779 332.059 417.218 333.52C415.605 335.033 415.357 336.405 408.797 341.539C404.471 344.92 402.308 346.619 399.533 347.681C395.996 349.036 392.804 349.248 390.694 349.213C392.21 348.292 394.631 346.77 397.556 344.761C399.329 343.539 400.597 342.574 401.146 342.211C406.643 338.538 412.485 335.44 417.431 330.59L417.422 330.599Z" fill="#0B4531"/>
<path d="M21.0778 242.545C25.4659 240.722 27.0173 237.305 32.4604 239.651C37.9301 242.014 35.7493 248.998 36.3787 253.565C43.9849 308.824 76.2711 346.655 131.261 359.189C132.573 358.79 135.303 349.611 136.438 347.372C138.397 343.504 141.455 338.875 143.92 335.237C148.255 328.837 155.763 326.394 144.727 320.933C127.839 319.428 107.635 322.916 91.1643 320.96C82.0334 319.88 81.3596 309.993 87.8222 307.789C100.145 303.584 118.796 309.621 131.784 307.116C127.927 303.903 124.408 300.132 120.605 296.893C117.653 294.379 97.8131 277.871 96.306 277.49C87.246 275.189 69.3919 278.517 59.011 277.313C48.6656 276.11 52.5573 263.93 57.238 263.93H81.7852C82.2816 261.85 81.404 262.452 80.6593 261.877C69.9504 253.6 56.7327 244.023 46.9547 234.977C44.3927 232.605 39.8449 228.879 39.8804 225.267C39.9336 220.195 45.0132 218.053 49.3836 220.071L79.9767 245.2C79.6753 239.412 72.539 229.286 79.1611 225.232C82.7337 223.045 86.0935 223.966 88.7353 227.099C92.7157 235.473 93.6288 252.149 98.3361 259.407C99.9318 261.868 105.233 266.479 107.662 268.816C114.284 275.198 121.775 280.951 128.663 287.059L120.108 243.855C122.928 234.039 131.278 235.349 134.186 244.988C139.549 262.788 141.03 283.483 146.305 301.531C146.845 302.708 159.487 314.746 160.382 315.153C161.145 315.498 161.508 315.711 162.412 315.463C163.777 315.1 171.915 308.311 174.371 306.824C181.383 302.566 190.151 297.813 197.846 295.051C228.102 284.191 262.294 284.023 292.462 295.007C304.128 299.256 318.081 306.656 327.336 315.003C328.852 316.366 328.764 318.702 330.386 318.145C335.2 312.622 341.733 308.116 346.05 302.504C345.873 295.432 333.79 281.102 340.191 275.357C349.481 267.037 353.736 287.802 355.749 292.856C356.112 293.768 355.27 294.388 357.158 294.078L387.787 265.39C389.524 262.408 377.033 244.227 378.106 237.526C378.611 234.366 382.876 232.994 385.659 233.455C391.209 234.375 395.286 249.555 396.864 254.424C397.175 255.371 396.2 256.043 398.194 255.734L428.53 226.312C434.771 221.665 442.989 228.277 438.317 235.181L408.593 263.487C408.238 264.771 408.93 265.7 409.488 266.745C412.68 272.719 423.717 282.252 425.667 288.059C427.919 294.742 421.855 299.238 416.022 295.875C411.775 293.432 402.848 277.154 399.116 272.675L340.802 326.739C346.99 337.636 356.52 347.142 358.541 360.021C370.598 358.383 381.253 352.586 392.45 348.417C392.21 348.806 392.955 350.612 391.572 351.541C390.384 352.347 382.627 354.816 382.131 355.498C381.351 356.595 382.246 360.525 380.322 360.862C378.753 361.136 377.025 359.826 377.734 358.242C375.447 360.605 372.521 358.932 370.128 359.481C366.998 360.207 361.936 363.455 359.1 362.72C358.257 362.499 358.763 360.623 358.098 360.906C355.944 361.826 351.05 363.889 351.547 366.571C352.557 371.952 359.649 368.447 361.502 368.854C362.442 369.058 362.397 371.209 363.488 371.474C366.848 372.298 376.714 367.084 381.067 367.96C385.748 361.596 392.778 362.048 398.504 359.339C399.932 358.666 400.082 357.064 401.191 356.462C402.538 355.728 406.891 353.719 408.513 354.639C392.361 364.765 378.744 371.448 359.614 374.9C352.77 376.139 337.079 380.264 334.845 371.616C332.983 364.393 338.028 363.756 343.01 361.88C343.887 361.552 344.659 362.322 344.162 360.552C343.613 358.587 340.27 352.639 339.038 350.505C323.622 323.783 293.88 307.576 263.89 303.009C263.322 302.92 262.675 303.089 262.108 303.009C233.368 299.167 203.315 304.345 178.821 321.039C165.072 330.413 150.826 345.478 146.978 361.88C154.061 362.11 163.981 363.11 161.082 372.838C159.061 379.618 141.03 375.971 130.755 374.086C130.755 374.086 110.41 370.35 92.6448 361.012C86.9357 358.011 81.005 354.267 81.005 354.267C79.888 353.559 76.4219 351.355 72.0248 348.213C68.5498 345.726 65.5445 343.416 63.0712 341.424C61.1741 339.902 60.0305 338.954 58.7185 337.565C57.2558 336.025 55.4384 333.573 54.8445 332.82C54.8002 332.758 54.7558 332.714 54.7292 332.67C54.6406 332.564 54.5253 332.431 54.3835 332.263C54.1885 332.042 54.091 331.935 53.825 331.652C53.4527 331.263 50.9793 328.05 49.6851 326.27C30.0137 299.247 23.294 275.8 21.0866 242.51L21.0778 242.545Z" fill="#0C422E"/>
<path d="M197.828 295.051C190.142 297.813 181.366 302.557 174.353 306.824C171.898 308.32 163.76 315.1 162.395 315.463C161.49 315.702 161.136 315.498 160.364 315.153C159.469 314.746 146.828 302.708 146.287 301.531C141.012 283.483 139.532 262.797 134.168 244.988C131.27 235.349 122.91 234.039 120.091 243.855L128.646 287.059C121.757 280.951 114.267 275.198 107.644 268.816C105.224 266.479 99.9141 261.868 98.3184 259.407C93.6111 252.149 92.698 235.473 88.7176 227.099C86.0759 223.966 82.716 223.045 79.1434 225.232C72.5302 229.286 79.6576 239.412 79.959 245.2L49.366 220.071C44.9955 218.053 39.907 220.186 39.8627 225.267C39.8272 228.887 44.3661 232.605 46.9369 234.977C56.715 244.023 69.9327 253.592 80.6416 261.876C81.3863 262.452 82.2639 261.85 81.7675 263.921H57.2203C52.5396 263.939 48.6479 276.118 58.9933 277.322C69.3742 278.526 87.2283 275.198 96.2883 277.499C97.7954 277.88 117.635 294.388 120.587 296.901C124.39 300.141 127.91 303.912 131.766 307.125C118.77 309.63 100.127 303.593 87.8045 307.798C81.342 310.002 82.0157 319.889 91.1466 320.968C107.618 322.925 127.821 319.428 144.709 320.942C155.746 326.394 148.228 328.846 143.902 335.246C141.438 338.884 138.379 343.513 136.42 347.381C135.285 349.62 132.555 358.799 131.243 359.198C76.2623 346.664 43.976 308.833 36.361 253.574C35.7316 249.007 37.9124 242.023 32.4427 239.66C26.9996 237.314 25.4571 240.739 21.06 242.554C20.404 232.729 19.6062 223.497 21.06 213.601C22.8242 201.545 26.2904 202.847 37.5666 201.554C59.4277 199.049 85.6947 201.838 106.731 208.211C148.104 220.744 188.192 251.034 197.819 295.06L197.828 295.051Z" fill="#6A8E6E"/>
<path d="M165.276 419.458C168.36 419.458 170.861 416.961 170.861 413.881C170.861 410.802 168.36 408.305 165.276 408.305C162.191 408.305 159.691 410.802 159.691 413.881C159.691 416.961 162.191 419.458 165.276 419.458Z" fill="#15432F"/>
<path d="M312.798 396.603C315.853 396.603 318.33 394.13 318.33 391.08C318.33 388.03 315.853 385.557 312.798 385.557C309.743 385.557 307.266 388.03 307.266 391.08C307.266 394.13 309.743 396.603 312.798 396.603Z" fill="#15432F"/>
<path d="M101.501 443.923C158.724 443.835 215.983 444.012 273.216 443.737C296.566 441.4 304.855 421.715 322.922 410.474C392.982 366.898 481.011 446.375 424.213 510.627C398.637 539.553 352.797 543.855 320.838 522.975C301.929 510.618 296.007 492.924 269.67 490.304C233.022 486.658 190.922 492.889 153.698 490.207C126.952 490.738 97.8839 492.721 71.1737 491.181L70.2784 484.949C70.5798 484.684 80.7302 485.684 77.4147 483.161C74.897 483.524 71.3776 482.63 69.0727 483.144C68.5142 483.267 68.2749 486.569 66.7235 484.94C66.3689 484.569 67.1668 480.063 62.7077 481.338C62.3265 481.444 60.7929 488.401 57.7522 483.754L56.9011 485.843C56.2717 485.365 56.1742 484.206 56.0058 484.064C56.5554 483.002 57.0873 481.533 56.5111 480.32C55.9703 479.196 54.7292 478.815 54.3214 478.638C52.575 477.868 51.13 474.089 52.4243 460.909C58.7096 462.529 54.9331 454.253 58.7184 450.703C62.2733 447.366 62.3531 451.04 62.619 451.031C66.7235 450.916 67.0427 448.03 68.5054 447.048C69.7465 446.216 75.9342 448.853 74.7286 443.958C75.624 443.958 76.5105 443.958 77.4058 443.958C77.9289 448.074 81.6699 446.145 84.9942 445.693C86.652 445.472 88.62 446.835 88.1147 443.95C89.8966 443.95 91.6873 443.95 93.4692 443.95C92.9196 446.596 95.7475 446.738 95.251 443.95C95.845 443.95 96.439 443.95 97.0329 443.95C96.4124 446.8 100.233 445.87 101.953 447.499C102.919 447.765 102.281 445.127 101.492 444.835V443.941L101.501 443.923ZM396.049 443.79C414.515 434.753 397.609 423.476 385.801 419.706C373.124 415.652 362.894 415.342 350.057 418.847C341.644 421.14 322.93 427.92 330.102 439.719C330.43 440.259 334.18 443.737 334.464 443.826C332.141 448.951 334.118 454.022 335.359 458.979C329.544 462.803 330.2 464.317 330.005 470.566C329.898 473.982 330.67 471.539 330.971 473.619C331.397 476.558 330.209 479.222 330.191 481.71C330.173 483.861 331.92 488.003 330.705 490.003C330.35 490.596 325.297 492.331 330.909 493.739C321.831 507.405 347.912 515.575 357.495 516.655C371.617 518.239 390.641 515.566 401.847 506.166C405.472 503.121 411.332 494.996 404.985 491.933C405.073 488.171 405.632 483.453 402.254 480.833C400.348 479.355 397.432 479.568 396.049 476.779C405.189 472.628 405.215 463.042 396.049 458.953C396.058 455.589 398.558 456.182 398.788 453.252C399.152 448.508 398.026 447.658 396.049 443.799V443.79ZM63.1155 451.969C61.8655 451.332 60.7308 452.535 61.3425 452.845C62.5924 453.483 63.7271 452.279 63.1155 451.969ZM79.1966 459.085L72.9556 456.404L75.6328 455.518V452.854C74.2322 451.464 70.5532 453.261 72.0514 456.421C71.6702 456.43 71.1737 456.439 70.5886 456.421C67.9735 456.359 66.236 456.315 65.8459 455.607C65.0746 454.182 69.5426 449.8 70.2784 450.296C70.8901 450.712 69.6933 455.005 66.6437 457.545C64.4807 459.342 62.3708 459.139 62.2112 460.59C62.096 461.679 63.5676 466.901 65.8193 466.229C65.5977 466.83 65.9966 468.123 65.8193 468.902C65.3583 470.973 64.7378 472.92 64.9328 475.133C66.2537 475.85 68.2838 474.23 68.4965 474.248C76.2268 474.682 83.6556 477.089 92.6004 476.018L88.1413 478.691C95.1358 479.824 103.167 475.655 103.318 467.999L105.552 472.433C104.94 470.336 105.481 467.769 105.056 465.954C104.914 465.335 103.691 465.379 103.407 464.6C102.547 462.21 100.189 453.651 98.2474 452.996C94.1518 451.606 83.5049 452.686 92.5827 456.43L89.9143 459.094C86.8293 458.802 82.3525 458.908 79.2054 459.094L79.1966 459.085ZM78.3012 476.903V478.691H86.3417V476.903H78.3012Z" fill="#5F431E"/>
<path d="M95.9958 443.897C84.489 446.127 78.0176 447.092 74.7641 447.225C72.9911 447.295 70.7394 447.18 68.5941 448.57C68.2572 448.782 67.1048 449.57 65.4204 450.447C63.7981 451.287 63.1776 451.172 62.6102 451.19C62.3443 451.19 62.2734 447.446 58.7096 450.854C54.9243 454.483 58.7096 462.936 52.4155 461.281C53.4616 472.044 54.6318 476.779 55.598 479.001C55.669 479.169 56.0236 479.966 56.4845 481.09C57.6281 483.869 58.4171 486.171 58.9135 487.693C57.0519 486.702 54.0999 484.816 51.5556 481.524C46.8483 475.416 45.5451 467.052 47.9387 459.9C50.0042 453.713 54.2328 450.137 56.0679 448.588C57.7611 447.154 59.8266 445.41 62.9294 444.516C64.4719 444.073 66.697 443.719 68.1863 443.48C68.1863 443.48 69.9682 443.144 71.6968 443.003C81.2888 442.188 91.9711 443.392 95.9869 443.905L95.9958 443.897Z" fill="#5F431E"/>
<path d="M55.1016 484.4C55.9793 484.179 56.8658 483.967 57.7434 483.745C58.5324 484.949 59.2238 485.374 59.8178 485.347C60.7841 485.294 60.8816 483.56 62.6989 481.338C63.5854 480.258 64.1085 479.638 64.9506 479.515C66.4045 479.293 68.1154 480.621 68.4966 482.17C68.8778 483.719 67.9381 485.454 67.5747 485.392C66.9807 485.286 66.4843 479.931 68.4966 478.629C70.2164 477.523 73.9486 479.249 77.4148 483.161C80.0832 485.436 81.2445 486.879 80.9076 487.481C80.4289 488.339 76.8829 487.498 70.2785 484.949L71.1738 491.18C69.4274 491.251 66.6793 491.145 63.5588 490.047C62.4241 489.649 60.0394 488.693 57.5395 486.702C56.4846 485.861 55.669 485.038 55.0928 484.409L55.1016 484.4Z" fill="#5F431E"/>
<path d="M88.1148 443.932C88.6201 446.817 86.6521 445.445 84.9943 445.676C81.6699 446.127 77.9289 448.057 77.4059 443.941C80.9696 443.932 84.5511 443.941 88.1148 443.941V443.932Z" fill="#5F431E"/>
<path d="M101.501 443.923V444.817C101.519 444.87 101.572 445.083 101.474 445.286C101.306 445.631 100.845 445.72 100.792 445.64C100.756 445.587 100.854 445.41 101.51 444.817C102.299 445.1 102.928 447.747 101.971 447.481C100.251 445.844 96.4213 446.782 97.0507 443.932C98.54 443.932 100.029 443.932 101.51 443.932L101.501 443.923Z" fill="#5F431E"/>
<path d="M95.2511 443.932C95.7476 446.72 92.9197 446.578 93.4693 443.932C94.0632 443.932 94.6572 443.932 95.2511 443.932Z" fill="#5F431E"/>
<path d="M396.049 443.79C398.026 447.641 399.152 448.49 398.788 453.243C398.567 456.173 396.067 455.571 396.049 458.944L335.35 458.97C334.1 454.022 332.132 448.942 334.455 443.817L396.04 443.79H396.049Z" fill="#0C422E"/>
<path d="M396.067 476.762C397.45 479.55 400.366 479.337 402.272 480.816C405.641 483.435 405.091 488.144 405.003 491.915C403.744 491.304 401.581 491.101 400.136 490.994C382.468 489.676 352.85 489.861 335.377 491.95C335.864 485.825 332.921 478.47 340.723 476.797L396.067 476.771V476.762Z" fill="#0B422D"/>
<path d="M340.731 476.788C332.904 478.452 335.856 485.816 335.368 491.941C334.357 492.065 331.397 492.968 330.891 493.729C330.554 493.862 328.897 494.482 327.363 493.667C325.147 492.49 324.659 489.109 325.59 488.357C326.751 487.418 330.359 490.428 330.687 489.985C331.033 489.534 326.734 486.967 324.703 482.161C323.498 479.302 322.78 474.929 324.703 473.31C326.521 471.778 330.59 472.805 330.599 472.681C330.599 472.655 330.404 472.663 330.235 472.54C330.067 472.416 329.943 472.026 329.996 470.557C332.815 474.584 335.59 476.7 340.74 476.788H340.731Z" fill="#5F431E"/>
<path d="M65.8105 466.219C65.2254 466.405 64.2148 466.609 63.1865 466.219C60.9525 465.387 59.8976 462.272 60.527 460.023C60.8373 458.917 62.5039 457.811 65.846 455.598C65.846 455.598 67.5215 454.483 69.4452 454.483C69.6136 454.483 69.7555 454.509 69.8796 454.545C70.048 454.598 70.1278 454.66 70.2076 454.704C70.5622 454.89 70.899 454.669 71.1561 454.704C71.4221 454.739 71.7589 455.067 72.0426 456.395C71.7146 456.111 70.0657 454.633 70.2696 452.934C70.5178 450.871 73.4344 448.836 77.3616 449.393C76.7854 451.429 76.2003 453.465 75.6241 455.501L72.9468 456.386L79.1878 459.068C73.0444 459.448 68.2927 459.466 65.8017 466.202L65.8105 466.219Z" fill="#5F431E"/>
<path d="M68.7626 475.363C68.7271 475.434 67.9648 474.788 67.1226 474.947C66.6261 475.044 66.4754 475.345 66.0942 475.558C65.6067 475.823 64.7645 475.921 63.1865 475.08C63.7096 474.549 64.5783 473.513 65.128 471.955C65.651 470.468 65.6421 469.176 65.5801 468.441C65.8194 472.265 66.8566 473.832 67.814 474.531C68.5232 475.133 68.7892 475.31 68.7626 475.354V475.363Z" fill="#5F431E"/>
<path d="M78.319 476.93V478.718H86.3595V476.93H78.319Z" fill="#5F431E"/>
<path d="M63.1155 451.969C63.7183 452.279 62.5924 453.483 61.3425 452.845C60.7396 452.535 61.8655 451.332 63.1155 451.969Z" fill="#5F431E"/>
<path d="M89.9055 459.085L92.5738 456.421C90.7743 455.722 88.9658 454.784 89.019 453.783C89.1076 452.058 94.6837 450.013 99.5329 451.19C104.852 452.482 108.442 457.439 109.284 461.812C109.719 464.069 109.364 465.865 109.284 466.237C108.557 469.671 106.359 471.734 105.543 472.433L103.309 467.998C106.643 472.238 105.907 478.239 102.192 481.284C98.1233 484.621 91.3505 483.683 88.1414 478.691L92.6004 476.018C97.3698 475.451 100.765 472.973 100.597 467.644C100.393 461.103 95.455 459.608 89.9144 459.094L89.9055 459.085Z" fill="#5F431E"/>
<path d="M56.1655 474.495C57.3356 479.744 57.2115 481.399 56.6796 481.603C56.2009 481.789 55.1017 480.913 54.7737 479.957C54.7116 479.78 54.6052 479.443 54.7116 479.071C54.8623 478.54 55.3056 478.39 55.5361 478.116C56.2275 477.292 54.9332 475.345 54.3216 473.734C54.0379 472.991 54.0113 472.592 53.9315 468.397C53.7985 460.988 53.8517 459.678 53.2843 459.51C52.5929 459.307 51.3606 460.891 50.811 462.369C50.3855 463.493 50.4121 464.396 51.3252 469.477C51.9812 473.123 52.1142 473.486 52.5397 473.858C54.3127 475.416 58.2399 474.575 60.4827 472.389C62.956 469.981 62.7433 466.574 62.699 465.972" fill="#5F431E"/>
<path d="M60.7752 451.818C58.8781 462.679 56.9899 473.539 55.0928 484.4Z" fill="#5F431E"/>
<path d="M383.345 174.611L383.407 175.496Z" fill="#EDEDE5"/>
<path d="M83.5878 476.528C93.4223 475.813 101.076 470.855 100.682 465.453C100.289 460.051 91.9973 456.251 82.1627 456.965C72.3282 457.679 64.6747 462.637 65.0682 468.039C65.4617 473.442 73.7532 477.242 83.5878 476.528Z" stroke="#5F431E" stroke-width="5" stroke-miterlimit="10"/>
<path d="M87.113 453.836C88.7353 450.296 92.2991 449.172 94.205 450.296C95.4816 451.048 96.0933 452.854 95.978 454.722" fill="#5F431E"/>
<path d="M106.616 455.607C102.777 455.899 98.9301 456.2 95.0916 456.492Z" fill="#5F431E"/>
<path d="M98.6375 456.492C119.69 456.492 136.757 453.52 136.757 449.853C136.757 446.187 119.69 443.215 98.6375 443.215C77.5847 443.215 60.5181 446.187 60.5181 449.853C60.5181 453.52 77.5847 456.492 98.6375 456.492Z" fill="#5F431E"/>
<path d="M95.9781 489.242C117.031 489.242 134.098 486.27 134.098 482.603C134.098 478.937 117.031 475.965 95.9781 475.965C74.9253 475.965 57.8586 478.937 57.8586 482.603C57.8586 486.27 74.9253 489.242 95.9781 489.242Z" fill="#5F431E"/>
<path d="M59.6316 472.424C64.5276 472.424 68.4966 467.47 68.4966 461.36C68.4966 455.25 64.5276 450.296 59.6316 450.296C54.7356 450.296 50.7666 455.25 50.7666 461.36C50.7666 467.47 54.7356 472.424 59.6316 472.424Z" fill="#5F431E"/>
<path d="M93.2199 478.527C97.876 477.016 101.282 474.66 100.828 473.265C100.374 471.871 96.2315 471.965 91.5754 473.477C86.9193 474.988 83.5129 477.344 83.967 478.739C84.4211 480.133 88.5638 480.039 93.2199 478.527Z" fill="#5F431E"/>
<path d="M63.1776 486.586C67.584 486.586 71.1561 482.822 71.1561 478.178C71.1561 473.534 67.584 469.769 63.1776 469.769C58.7712 469.769 55.1991 473.534 55.1991 478.178C55.1991 482.822 58.7712 486.586 63.1776 486.586Z" fill="#5F431E"/>
<path d="M56.0856 459.147C58.5336 459.147 60.5181 457.562 60.5181 455.607C60.5181 453.651 58.5336 452.066 56.0856 452.066C53.6376 452.066 51.6531 453.651 51.6531 455.607C51.6531 457.562 53.6376 459.147 56.0856 459.147Z" fill="#5F431E"/>
<path d="M387.563 365.032C404.506 357.276 417.166 348.647 415.84 345.759C414.514 342.87 399.704 346.816 382.76 354.572C365.817 362.328 353.157 370.957 354.484 373.846C355.81 376.734 370.62 372.788 387.563 365.032Z" fill="#0C422E"/>
<path d="M432.634 332.742C443.266 322.127 450.06 311.7 447.81 309.453C445.56 307.206 435.117 313.99 424.485 324.606C413.854 335.221 407.059 345.648 409.31 347.895C411.56 350.141 422.003 343.357 432.634 332.742Z" fill="#0C422E"/>
<path d="M73.0899 460.551C75.4932 458.864 76.9851 456.849 76.4221 456.049C75.859 455.249 73.4543 455.968 71.0509 457.654C68.6475 459.341 67.1556 461.356 67.7187 462.156C68.2817 462.956 70.6865 462.237 73.0899 460.551Z" fill="#5F431E"/>
<path d="M72.0426 491.012C77.4282 491.012 81.7941 489.427 81.7941 487.472C81.7941 485.517 77.4282 483.931 72.0426 483.931C66.657 483.931 62.2911 485.517 62.2911 487.472C62.2911 489.427 66.657 491.012 72.0426 491.012Z" fill="#5F431E"/>
<path d="M334.889 491.897C335.134 491.897 335.333 488.727 335.333 484.816C335.333 480.906 335.134 477.735 334.889 477.735C334.645 477.735 334.446 480.906 334.446 484.816C334.446 488.727 334.645 491.897 334.889 491.897Z" fill="#5F431E"/>
</g>
<defs>
<clipPath id="clip0_4_138">
<rect width="490" height="536" fill="white"/>
</clipPath>
</defs>
</svg>
